<svg width="1050" height="420" viewBox="0 0 2510 1110" fill="none" xmlns="http://www.w3.org/2000/svg">
    <rect y="944" width="80" height="80" fill="#1F2326"/>
    <rect y="1035" width="80" height="8" fill="#1F2326"/>
    <path d="M16 983.835V964L47.9451 1004H31.9726L16 983.835Z" fill="#FF4656"/>
    <path d="M58.6484 990.612H43.0051L64 964V983.835L58.6484 990.612Z" fill="#FF4656"/>
    <rect opacity="0.5" x="1457" y="887" width="8" height="8" fill="#1F2326"/>
    <rect opacity="0.5" x="1385" y="763" width="80" height="8" fill="#1F2326"/>
    <rect opacity="0.5" x="1457" y="240" width="8" height="8" fill="#1F2326"/>
    <rect opacity="0.5" x="1993" y="473" width="8" height="8" fill="#1F2326"/>
    <rect opacity="0.5" x="1428" y="116" width="24" height="8" fill="#1F2326"/>
    <rect opacity="0.5" x="731" y="17" width="40" height="40" fill="#1F2326"/>
    <rect opacity="0.5" x="2470" y="1053" width="40" height="40" fill="#1F2326"/>
    <rect opacity="0.5" x="289" y="17" width="8" height="8" fill="#1F2326"/>
    <rect opacity="0.5" x="321" y="17" width="8" height="8" fill="#1F2326"/>
    <rect opacity="0.5" x="2156" y="1102" width="8" height="8" fill="#1F2326"/>
    <rect opacity="0.5" x="2188" y="1102" width="8" height="8" fill="#1F2326"/>
    <rect opacity="0.5" x="2003" y="316" width="40" height="40" fill="#1F2326"/>
    <rect opacity="0.5" x="2" y="1102" width="232" height="8" fill="#1F2326"/>
    <rect opacity="0.5" x="1838" width="232" height="8" fill="#1F2326"/>
    <rect opacity="0.5" x="869" y="978" width="40" height="40" fill="#1F2326"/>
    <rect opacity="0.5" x="2" y="364" width="8" height="8" fill="#1F2326"/>
    <rect opacity="0.5" x="2125" y="639" width="61" height="8" fill="#1F2326"/>
    <rect opacity="0.5" x="2" y="116" width="40" height="8" fill="#1F2326"/>
</svg>